<svg width="24" height="24" viewBox="0 0 24 24" fill="none" xmlns="http://www.w3.org/2000/svg">
<path fill-rule="evenodd" clip-rule="evenodd" d="M2.0251 17.7V4.875H21.9751V17.7H2.0251ZM21.9751 3.45H2.0251C1.64716 3.45 1.28471 3.60013 1.01747 3.86737C0.750231 4.13461 0.600098 4.49706 0.600098 4.875V19.125C0.600098 19.5029 0.750231 19.8654 1.01747 20.1326C1.28471 20.3999 1.64716 20.55 2.0251 20.55H21.9751C22.353 20.55 22.7155 20.3999 22.9827 20.1326C23.25 19.8654 23.4001 19.5029 23.4001 19.125V4.875C23.4001 4.49706 23.25 4.13461 22.9827 3.86737C22.7155 3.60013 22.353 3.45 21.9751 3.45ZM20.5501 12H14.8501V16.275H20.5501V12Z" fill="#B3B3B3"/>
</svg>
