<svg width="37" height="40" viewBox="0 0 37 40" fill="none" xmlns="http://www.w3.org/2000/svg">
<g clip-path="url(#clip0_349_1621)">
<path d="M13.6883 5.55078L8.02465 12.5H1.52778C0.683681 12.5 0 13.3391 0 14.375V25.625C0 26.6602 0.683681 27.5 1.52778 27.5H8.02465L13.6883 34.4492C14.645 35.6234 16.2963 34.7984 16.2963 33.1234V6.87656C16.2963 5.2 14.6438 4.37812 13.6883 5.55078ZM28.5408 1.56015C27.8297 0.987496 26.8742 1.2289 26.4076 2.10312C25.9404 2.97578 26.139 4.14843 26.8501 4.72109C31.0686 8.11875 33.5863 13.8305 33.5863 20.0008C33.5863 26.1711 31.0686 31.8828 26.8501 35.2805C26.139 35.8523 25.9404 37.0258 26.4076 37.8977C26.8558 38.7344 27.8036 39.0352 28.5408 38.4406C33.6283 34.3422 36.6667 27.4477 36.6667 20C36.6667 12.5523 33.6283 5.65859 28.5408 1.56015ZM30.5556 20C30.5556 15.0367 28.5147 10.4734 25.0957 7.79375C24.3833 7.23593 23.4387 7.49531 22.9873 8.37656C22.536 9.25781 22.7467 10.4242 23.459 10.9828C25.9894 12.9664 27.5 16.3367 27.5 20C27.5 23.6633 25.9894 27.0336 23.459 29.0172C22.7467 29.575 22.536 30.7414 22.9873 31.6234C23.4017 32.4328 24.3318 32.8062 25.0957 32.2062C28.5147 29.5266 30.5556 24.9641 30.5556 20ZM21.5308 13.9945C20.7937 13.5 19.8637 13.8258 19.455 14.7328C19.0482 15.6398 19.3175 16.7797 20.0565 17.2805C20.8784 17.8344 21.3889 18.8773 21.3889 20C21.3889 21.1234 20.8784 22.1656 20.0572 22.7195C19.3181 23.2203 19.0488 24.3602 19.4556 25.2672C19.8649 26.1781 20.7956 26.5016 21.5315 26.0055C23.3285 24.7906 24.4451 22.4898 24.4451 19.9992C24.4451 17.5086 23.3285 15.2086 21.5308 13.9945Z" fill="#B3B3B3"/>
</g>
<defs>
<clipPath id="clip0_349_1621">
<rect width="36.6667" height="40" fill="white"/>
</clipPath>
</defs>
</svg>
