<svg width="37" height="40" viewBox="0 0 37 40" fill="none" xmlns="http://www.w3.org/2000/svg">
<g clip-path="url(#clip0_349_1623)">
<path d="M20.5324 5.62809L12.037 12.5781H2.29167C1.02552 12.5781 0 13.4171 0 14.4531V25.7031C0 26.7382 1.02552 27.5781 2.29167 27.5781H12.037L20.5324 34.5273C21.9675 35.7015 24.4444 34.8765 24.4444 33.2015V6.95465C24.4444 5.2773 21.9656 4.45621 20.5324 5.62809ZM32.2963 14.0718C31.1905 13.5773 29.7955 13.9031 29.1825 14.8101C28.5723 15.7171 28.9762 16.857 30.0848 17.3578C31.3175 17.9125 32.0833 18.9546 32.0833 20.0781C32.0833 21.2015 31.3175 22.2437 30.0858 22.7976C28.9772 23.2984 28.5733 24.4382 29.1834 25.3453C29.7974 26.2562 31.1934 26.5796 32.2972 26.0836C34.9928 24.8687 36.6676 22.5679 36.6676 20.0773C36.6676 17.5867 34.9928 15.2867 32.2963 14.0718Z" fill="white"/>
</g>
<defs>
<clipPath id="clip0_349_1623">
<rect width="36.6667" height="40" fill="white"/>
</clipPath>
</defs>
</svg>
